<svg width="50" height="52" viewBox="0 0 50 52" fill="none" xmlns="http://www.w3.org/2000/svg">
<rect width="50" height="52" rx="25" fill="white"/>
<path d="M10.9184 19.8006C10.0667 20.4073 9.56755 21.6921 10.5085 23.2283C11.4495 24.7645 24.8931 35.1336 25.3859 35.4215C25.8789 35.7097 26.3721 35.7576 27.6264 34.7496C28.8813 33.7413 39.3653 25.8656 39.6358 25.6287C40.0663 25.2518 40.1735 24.3325 39.6358 23.9003C39.6358 23.9003 26.9346 33.4052 26.5188 33.7895C26.1031 34.1735 25.4561 33.5495 25.5776 32.7335C25.6996 31.9172 25.7894 31.8211 27.4026 30.5731C29.0158 29.3248 38.1622 22.3928 38.5772 22.0864C39.0471 21.7391 39.0584 21.1258 38.2887 20.5834C37.2185 19.8294 25.6538 11.6047 25.2669 11.3168C24.879 11.0287 24.3421 10.7669 23.5356 11.3429C22.7291 11.919 12.4831 18.6858 10.9184 19.8006Z" fill="#316DC2"/>
<path d="M25.3859 36.4333C25.0624 36.2442 19.1639 31.7154 14.8795 28.1892V35.5413C14.8762 40.9082 29.9969 43.7757 35.0062 37.1781V30.1512C31.9289 32.4764 28.3294 35.1965 27.6264 35.7611C26.3721 36.7692 25.8789 36.7212 25.3859 36.4333Z" fill="#316DC2"/>
<path d="M31.7845 28.3718C31.7845 28.3718 34.0327 29.5021 34.1926 34.0505L33.1034 33.7503L32.232 35.6014C31.8633 30.6207 29.8557 29.8985 29.8557 29.8985L31.7845 28.3718Z" fill="#98B8E6"/>
</svg>
